<?xml version="1.0" standalone="no"?>
<!DOCTYPE svg PUBLIC "-//W3C//DTD SVG 20010904//EN"
 "http://www.w3.org/TR/2001/REC-SVG-20010904/DTD/svg10.dtd">
<svg version="1.0" xmlns="http://www.w3.org/2000/svg"
 width="924.000000pt" height="924.000000pt" viewBox="0 0 924.000000 924.000000"
 preserveAspectRatio="xMidYMid meet">
<metadata>
Created by potrace 1.14, written by Peter Selinger 2001-2017
</metadata>
<g transform="translate(0.000000,924.000000) scale(0.100000,-0.100000)"
fill="#000000" stroke="none">
<path d="M2248 6722 c-13 -2 -15 -16 -14 -73 l2 -69 -31 -1 c-16 -1 -49 -1
-72 -1 -48 1 -46 5 -43 -96 1 -50 0 -54 -22 -52 -13 1 -60 2 -105 1 l-82 -1 0
-170 -1 -170 53 28 c50 28 69 38 184 103 28 16 53 37 55 47 3 15 17 17 103 17
l100 0 3 73 3 72 189 0 188 0 -2 -66 c-1 -37 3 -68 9 -72 5 -4 72 -7 148 -7
l137 -1 0 148 0 147 -66 -2 c-36 -1 -69 2 -73 8 -5 5 -7 36 -6 67 1 31 -1 60
-4 65 -5 7 -616 12 -653 5z"/>
<path d="M3153 6428 c-6 -11 -5 -1110 1 -1116 3 -3 11 0 18 5 7 6 42 26 78 46
36 19 92 50 125 69 l60 34 3 482 c2 382 0 482 -10 482 -184 4 -271 4 -275 -2z"/>
<path d="M4103 6430 c-17 -5 -18 -36 -18 -585 l0 -580 -70 0 -70 0 -3 -71 -3
-72 -144 1 -145 1 0 71 0 71 -52 1 c-105 1 -95 -9 -95 96 1 52 -3 91 -9 90 -5
-1 -68 -34 -139 -75 -72 -40 -147 -82 -168 -93 -34 -18 -54 -44 -24 -32 50 21
47 24 47 -58 l0 -76 73 2 72 2 2 -63 c1 -35 4 -69 7 -75 2 -7 30 -11 70 -10
74 1 67 10 68 -97 l1 -48 74 0 74 0 -1 -57 c-1 -32 -1 -66 -1 -76 1 -16 14
-17 148 -15 l147 3 -1 72 -1 72 71 3 72 3 3 71 3 71 67 -1 67 -1 3 73 c3 80
-4 75 95 72 l57 -1 -2 656 -3 656 -127 2 c-70 1 -135 0 -145 -3z"/>
<path d="M4793 6432 c-21 -3 -23 -8 -23 -73 l0 -69 -73 0 -73 0 0 -67 1 -68
-74 -5 -74 -5 1 -405 c0 -223 1 -411 1 -418 1 -8 21 -1 59 20 31 17 95 53 142
79 l85 47 3 264 2 264 63 -1 c85 -2 88 0 86 54 -3 101 -23 91 176 91 l174 0 3
-72 3 -73 135 -1 c74 0 140 3 145 7 8 6 12 192 6 276 -1 8 -22 12 -67 12 -39
-1 -70 4 -74 10 -3 7 -6 39 -4 71 1 39 -2 60 -10 60 -77 3 -597 4 -613 2z"/>
<path d="M5670 6285 l0 -145 145 0 145 0 0 145 0 145 -145 0 -145 0 0 -145z"/>
<path d="M6408 6358 l-3 -72 -70 -1 -70 0 -1 -55 c-1 -30 -2 -63 -3 -72 -1
-15 -11 -18 -71 -18 -70 0 -70 0 -71 -27 -2 -102 0 -815 3 -818 2 -2 66 32
143 75 l140 79 5 272 5 273 70 0 70 1 2 55 c0 30 1 63 2 73 1 15 15 17 146 16
l146 0 -2 -42 c-1 -23 -1 -57 0 -74 l1 -33 73 0 72 0 -1 -350 c0 -192 1 -350
3 -350 1 0 67 36 146 80 l143 80 -1 262 c0 145 2 268 6 273 4 6 37 9 73 9 54
-1 66 2 67 15 0 9 1 41 2 71 l2 55 143 3 c162 3 144 15 145 -95 l1 -53 73 0
73 0 0 -655 0 -656 147 3 146 3 0 720 c-1 396 -2 723 -2 728 -1 4 -34 7 -74 7
l-72 0 0 73 0 72 -72 0 -73 -1 0 73 0 73 -292 -2 -293 -3 1 -67 c1 -41 -3 -68
-10 -70 -6 -2 -72 -4 -146 -3 l-135 0 -1 70 0 70 -292 3 -291 2 -3 -72z"/>
<path d="M2180 6223 c-25 -14 -101 -57 -170 -96 -141 -78 -136 -75 -127 -83 4
-4 17 0 31 9 13 9 25 14 27 12 2 -2 3 -249 3 -549 l-1 -546 74 0 74 0 -2 -57
c-3 -99 -8 -93 71 -90 42 1 70 -2 71 -8 1 -5 2 -37 3 -70 l1 -59 325 -1 c179
-1 330 1 336 2 7 3 10 29 9 68 -2 72 -8 67 88 67 l57 0 0 147 0 148 -147 -1
-148 -1 0 -70 0 -70 -185 0 -185 0 -3 72 -3 72 -62 -1 c-34 0 -67 0 -72 1 -6
1 -10 81 -10 220 l0 220 275 0 c151 0 285 0 298 0 22 1 22 2 22 146 l0 145
-297 2 -298 3 0 198 c0 108 -2 197 -5 197 -3 -1 -25 -12 -50 -27z"/>
<path d="M5668 5817 c-2 -18 -2 -145 0 -284 l3 -252 42 23 c23 12 88 48 145
80 l102 58 0 203 0 204 -144 -1 -145 0 -3 -31z"/>
<path d="M4735 5409 c-49 -28 -99 -55 -110 -60 -11 -5 -40 -22 -65 -37 -25
-15 -55 -32 -65 -39 -11 -6 -17 -14 -13 -18 3 -4 18 1 32 10 l26 17 1 -198 c0
-110 1 -244 2 -299 l2 -100 120 2 c66 1 131 2 145 2 l25 1 0 385 c0 212 -2
385 -5 385 -3 0 -45 -23 -95 -51z"/>
<path d="M6290 5344 c-91 -51 -166 -98 -168 -104 -5 -14 10 -12 33 6 20 15 20
13 25 -273 l5 -288 143 0 142 -1 0 378 c0 208 -3 378 -7 377 -5 -1 -82 -43
-173 -95z"/>
<path d="M7255 5394 c-69 -39 -114 -64 -230 -128 -11 -6 -23 -15 -27 -21 -12
-17 1 -18 26 -1 14 8 27 12 29 8 2 -4 3 -130 3 -280 -1 -151 1 -277 4 -281 3
-4 69 -7 148 -7 l142 0 0 378 c0 208 -3 378 -7 377 -5 0 -44 -21 -88 -45z"/>
<path d="M5890 5363 c-63 -36 -137 -77 -164 -92 -56 -31 -80 -64 -27 -36 l32
16 -1 -873 c-1 -480 -1 -956 -1 -1056 l1 -184 68 38 c37 21 83 46 102 57 105
58 120 69 120 91 0 21 3 21 138 20 75 -1 140 -2 145 -3 4 0 7 -17 7 -36 l0
-35 70 0 69 0 3 -72 3 -72 70 0 70 -1 1 -283 c1 -155 5 -286 9 -290 3 -4 69
-7 146 -7 l139 -1 0 363 0 363 -57 1 c-32 1 -66 1 -75 0 -14 -2 -16 7 -14 68
2 39 1 72 -3 72 -3 1 -33 3 -66 4 -33 2 -63 3 -66 4 -9 1 -9 141 -1 142 4 0
36 2 72 2 l65 2 0 75 0 75 73 0 72 0 0 287 0 288 -102 1 c-156 2 -179 1 -185
-4 -2 -3 -5 -101 -6 -219 l-2 -213 -70 0 -70 0 -3 -73 -3 -72 -32 -1 c-18 -1
-49 0 -69 1 -39 2 -43 -4 -39 -52 3 -21 17 -19 -152 -21 l-138 -2 3 898 c2
594 0 897 -7 896 -5 0 -62 -30 -125 -66z"/>
<path d="M1014 4581 c-2 -2 -4 -144 -4 -314 0 -289 1 -309 17 -302 17 6 264
144 272 151 6 6 7 433 0 452 -5 15 -23 17 -143 17 -76 0 -140 -2 -142 -4z"/>
<path d="M1889 4570 c-5 -92 -2 -603 3 -606 4 -3 36 11 70 31 35 19 98 54 141
78 l77 42 -2 234 -3 235 -142 1 c-122 1 -143 -2 -144 -15z"/>
<path d="M2828 4565 c-2 -11 -3 -370 -3 -797 l1 -778 -73 0 -73 0 0 -75 c0
-64 -2 -75 -17 -76 -24 -1 -233 -1 -255 0 -16 1 -18 11 -18 75 l0 74 -72 0
-73 0 -1 556 c-1 307 -3 558 -5 560 -8 6 -343 -190 -347 -203 -4 -11 1 -10 19
2 13 10 27 17 31 17 5 0 8 -209 8 -465 l0 -465 -73 0 -73 0 1 -71 c0 -39 -4
-73 -9 -76 -7 -5 -194 -7 -268 -4 -15 1 -17 12 -16 74 l1 72 -69 0 c-38 0 -71
3 -74 7 -3 3 -5 256 -4 562 0 306 0 556 -1 556 -1 0 -235 -132 -334 -188 -8
-5 -17 -15 -20 -23 -3 -11 -1 -11 10 -3 8 6 23 14 34 18 20 6 20 1 19 -534 0
-379 3 -540 10 -542 6 -2 38 -3 71 -3 l60 0 5 -70 5 -70 60 -1 c33 -1 65 -2
71 -3 7 -1 11 -24 11 -58 1 -32 1 -65 2 -73 1 -13 39 -15 283 -14 156 1 286 2
291 3 4 0 7 33 7 71 0 39 3 71 8 71 4 1 67 2 141 3 152 2 147 5 145 -89 0 -30
2 -56 5 -56 18 -4 558 -4 568 -1 8 2 12 21 12 46 -1 22 -1 55 0 71 l1 31 70
-1 70 -2 0 68 c0 44 4 68 13 71 6 3 40 4 74 3 l61 -1 0 875 0 876 -143 0
c-136 0 -144 -1 -147 -20z"/>
<path d="M4913 4292 l-73 -3 0 -69 0 -70 -73 0 -73 0 1 -67 0 -68 -72 -3 -72
-3 -3 -312 c-2 -172 -1 -360 2 -419 l5 -106 140 78 140 78 5 264 5 263 70 0
70 1 0 72 0 72 178 0 177 0 0 -72 0 -73 145 0 c139 -1 145 0 145 20 1 11 1 76
2 145 l1 125 -74 3 -75 3 2 69 c2 49 -1 70 -9 70 -157 3 -510 4 -564 2z"/>
<path d="M3508 4218 l-3 -73 -60 -1 c-33 0 -65 -2 -71 -2 -7 -1 -11 -25 -10
-64 l1 -63 -72 -3 -73 -3 -1 -42 c-3 -193 0 -789 4 -793 2 -3 68 30 145 73
l141 78 1 263 c0 242 1 262 18 263 9 1 37 2 62 3 25 2 50 3 57 4 7 1 11 25 10
70 l-1 67 177 2 177 2 0 -75 0 -74 73 0 73 0 0 -430 0 -430 -73 0 -73 0 0 -75
c0 -71 -1 -75 -22 -76 -72 -3 -259 -1 -263 2 -2 3 -6 36 -7 75 l-3 69 -35 2
c-19 1 -51 2 -71 2 l-36 1 -1 158 c0 86 -1 161 -1 166 -1 4 -11 2 -23 -6 -13
-8 -48 -29 -78 -45 -283 -156 -256 -140 -247 -149 4 -4 18 1 32 10 l25 16 1
-107 c0 -60 0 -127 -1 -150 -1 -24 2 -43 7 -44 4 0 37 -2 73 -3 l65 -1 2 -50
c1 -28 2 -60 2 -71 1 -19 6 -21 59 -19 85 3 87 1 87 -80 l0 -70 290 0 290 0 0
65 c1 36 4 70 8 76 3 6 32 10 68 9 70 -2 70 -2 72 82 l2 58 70 0 70 0 3 588 2
587 -74 0 -74 0 0 59 c1 32 -2 63 -5 68 -3 5 -32 9 -64 8 -32 -1 -63 2 -69 6
-6 5 -10 37 -9 74 l2 65 -323 0 -323 0 -3 -72z"/>
<path d="M7290 4217 l0 -74 -73 2 -74 1 0 -60 c-1 -34 -2 -67 -2 -73 -1 -9
-23 -13 -73 -13 l-73 0 2 -202 c1 -112 2 -211 3 -220 0 -14 12 -18 73 -20 l72
-3 -2 -70 -3 -71 73 0 72 1 3 -73 3 -72 62 -1 c34 0 132 0 218 0 l156 0 -1
-74 c-1 -70 0 -73 19 -63 11 6 77 42 147 82 l128 71 0 63 c0 42 -4 62 -12 63
-7 0 -40 2 -73 2 l-60 2 -1 70 0 70 -213 1 c-117 1 -215 5 -219 9 -4 4 -8 33
-8 66 -1 32 -2 63 -3 67 0 5 -31 8 -68 8 l-68 -1 -3 73 c-2 53 0 72 10 73 7 1
36 3 63 4 28 1 55 3 61 4 6 0 10 29 9 71 l-1 69 146 -1 147 0 0 -47 c1 -107
-5 -98 69 -96 77 2 81 -3 79 -87 -1 -52 1 -58 19 -59 12 0 77 -1 146 -1 l125
-1 1 142 c1 161 6 153 -93 148 -59 -3 -57 -8 -53 96 2 52 8 48 -80 52 -25 1
-50 3 -57 4 -7 0 -11 23 -11 59 0 31 0 63 -1 70 -1 9 -66 12 -291 12 l-290 0
0 -73z"/>
<path d="M4850 3294 c-25 -14 -67 -38 -95 -53 -27 -15 -85 -47 -127 -70 -43
-24 -78 -47 -78 -52 0 -13 7 -11 35 7 l25 16 1 -283 c1 -156 1 -290 0 -296 -2
-16 -7 -15 156 -17 81 0 134 3 136 9 5 15 1 755 -4 760 -3 2 -25 -7 -49 -21z"/>
<path d="M5905 3194 c-184 -104 -181 -101 -173 -110 4 -3 18 2 32 11 l26 17 0
-284 0 -285 145 0 c80 -1 145 2 146 6 3 39 3 741 -1 741 -3 0 -81 -43 -175
-96z"/>
<path d="M7975 3228 c-50 -28 -110 -62 -135 -75 -84 -47 -110 -65 -110 -74 0
-6 19 1 43 15 46 27 101 37 133 26 17 -7 20 -16 20 -61 l-1 -54 -73 0 -72 0 0
-87 0 -88 -145 0 c-131 0 -145 2 -146 18 -1 9 -2 42 -3 72 l-1 55 -72 0 -73 0
0 73 0 72 -145 0 -145 0 0 -145 0 -145 73 0 72 0 0 -70 c-1 -40 3 -71 9 -73 6
-1 39 -2 74 -2 l62 1 0 -73 0 -73 293 2 292 3 -1 83 c0 67 3 82 15 83 9 1 42
1 74 2 l57 1 0 57 c0 37 4 58 13 61 6 2 39 3 73 3 l61 -2 -1 216 -1 216 -66 1
c-37 1 -71 4 -76 7 -5 3 -49 -17 -98 -45z"/>
</g>
</svg>
