<?xml version="1.0" standalone="no"?>
<!DOCTYPE svg PUBLIC "-//W3C//DTD SVG 20010904//EN"
 "http://www.w3.org/TR/2001/REC-SVG-20010904/DTD/svg10.dtd">
<svg version="1.0" xmlns="http://www.w3.org/2000/svg"
 width="1181.000000pt" height="1181.000000pt" viewBox="0 0 1181.000000 1181.000000"
 preserveAspectRatio="xMidYMid meet">
<metadata>
Created by potrace 1.14, written by Peter Selinger 2001-2017
</metadata>
<g transform="translate(0.000000,1181.000000) scale(0.100000,-0.100000)"
fill="#000000" stroke="none">
<path d="M3900 8655 l0 -355 735 0 735 0 0 -875 0 -875 -695 0 -695 0 0 -355
0 -355 695 0 695 0 0 -1180 0 -1180 -735 0 -735 0 0 -355 0 -355 1665 0 1665
0 2 2768 3 2767 648 3 647 2 0 350 0 350 -2315 0 -2315 0 0 -355z m2560 -1230
l0 -875 -155 0 -155 0 0 868 c0 478 3 872 7 875 3 4 73 7 155 7 l148 0 0 -875z
m0 -2765 l0 -1181 -152 3 -153 3 -3 1165 c-1 641 0 1171 3 1178 3 9 44 12 155
12 l150 0 0 -1180z"/>
</g>
</svg>
